<?xml version="1.0" encoding="UTF-8" standalone="no"?>
<!-- Created with Inkscape (http://www.inkscape.org/) -->

<svg
   xmlns:dc="http://purl.org/dc/elements/1.1/"
   xmlns:cc="http://creativecommons.org/ns#"
   xmlns:rdf="http://www.w3.org/1999/02/22-rdf-syntax-ns#"
   xmlns:svg="http://www.w3.org/2000/svg"
   xmlns="http://www.w3.org/2000/svg"
   xmlns:sodipodi="http://sodipodi.sourceforge.net/DTD/sodipodi-0.dtd"
   xmlns:inkscape="http://www.inkscape.org/namespaces/inkscape"
   width="744.09448819"
   height="1052.3622047"
   id="svg2"
   version="1.1"
   inkscape:version="0.91 r13725"
   sodipodi:docname="Jacobian.svg"
   inkscape:export-filename="/home/yky/latex/agi-17/Jacobian.png"
   inkscape:export-xdpi="400"
   inkscape:export-ydpi="400">
  <sodipodi:namedview
     id="base"
     pagecolor="#ffffff"
     bordercolor="#666666"
     borderopacity="1.0"
     inkscape:pageopacity="0.0"
     inkscape:pageshadow="2"
     inkscape:zoom="1"
     inkscape:cx="267.94815"
     inkscape:cy="550.58787"
     inkscape:document-units="px"
     inkscape:current-layer="layer1"
     showgrid="false"
     inkscape:window-width="1050"
     inkscape:window-height="1656"
     inkscape:window-x="0"
     inkscape:window-y="0"
     inkscape:window-maximized="1" />
  <defs
     id="defs4">
    <marker
       inkscape:stockid="Arrow1Mend"
       orient="auto"
       refY="0.0"
       refX="0.0"
       id="Arrow1Mend"
       style="overflow:visible;">
      <path
         id="path3869"
         d="M 0.0,0.0 L 5.0,-5.0 L -12.5,0.0 L 5.0,5.0 L 0.0,0.0 z "
         style="fill-rule:evenodd;stroke:#000000;stroke-width:1.0pt;"
         transform="scale(0.4) rotate(180) translate(10,0)" />
    </marker>
    <inkscape:path-effect
       effect="envelope"
       id="path-effect3058"
       is_visible="true"
       yy="true"
       xx="true"
       bendpath1="m 541.33849,240.319 5.15322,234.30418"
       bendpath2="M 490.272,390.69259 437.68128,496.99036"
       bendpath3="m 323.03658,185.97494 49.53055,223.78499"
       bendpath4="m 511.78523,256.3379 -94.68428,18.83847"
       bendpath1-nodetypes="cc"
       bendpath2-nodetypes="cc"
       bendpath3-nodetypes="cc"
       bendpath4-nodetypes="cc" />
    <inkscape:path-effect
       effect="construct_grid"
       id="path-effect2993"
       is_visible="true"
       nr_x="6"
       nr_y="6" />
    <inkscape:path-effect
       effect="construct_grid"
       id="path-effect2993-6"
       is_visible="true"
       nr_x="6"
       nr_y="6" />
    <inkscape:path-effect
       effect="construct_grid"
       id="path-effect2993-6-1"
       is_visible="true"
       nr_x="6"
       nr_y="6" />
    <inkscape:path-effect
       effect="construct_grid"
       id="path-effect2993-3"
       is_visible="true"
       nr_x="6"
       nr_y="6" />
    <marker
       inkscape:stockid="Arrow1Mend"
       orient="auto"
       refY="0"
       refX="0"
       id="Arrow1Mend-9"
       style="overflow:visible">
      <path
         inkscape:connector-curvature="0"
         id="path3869-1"
         d="M 0,0 5,-5 -12.5,0 5,5 0,0 z"
         style="fill-rule:evenodd;stroke:#000000;stroke-width:1pt"
         transform="matrix(-0.4,0,0,-0.4,-4,0)" />
    </marker>
  </defs>
  <metadata
     id="metadata7">
    <rdf:RDF>
      <cc:Work
         rdf:about="">
        <dc:format>image/svg+xml</dc:format>
        <dc:type
           rdf:resource="http://purl.org/dc/dcmitype/StillImage" />
        <dc:title />
      </cc:Work>
    </rdf:RDF>
  </metadata>
  <g
     inkscape:label="Layer 1"
     inkscape:groupmode="layer"
     id="layer1">
    <path
       style="fill:none;stroke:#ff0000;stroke-width:1px;stroke-linecap:butt;stroke-linejoin:miter;stroke-opacity:1"
       d="m 194,288.36218 -144,0 m 144,27 -144,0 m 144,27 -144,0 m 144,27 -144,0 m 144,27 -144,0 m 144,27 -144,0 m 144,27 -144,0 m 144,-162 0,162 m -24,-162 0,162 m -24,-162 0,162 m -24,-162 0,162 m -24,-162 0,162 m -24,-162 0,162 m -24,-162 0,162"
       id="path2987"
       inkscape:connector-curvature="0"
       sodipodi:nodetypes="ccc"
       inkscape:path-effect="#path-effect2993"
       inkscape:original-d="m 170,288.36218 24,0 0,27" />
    <path
       style="fill:none;stroke:#ff0000;stroke-width:1px;stroke-linecap:butt;stroke-linejoin:miter;stroke-opacity:1"
       d="m 194,525.36218 -144,0 m 144,27 -144,0 m 144,27 -144,0 m 144,27 -144,0 m 144,27 -144,0 m 144,27 -144,0 m 144,27 -144,0 m 144,-162 0,162 m -24,-162 0,162 m -24,-162 0,162 m -24,-162 0,162 m -24,-162 0,162 m -24,-162 0,162 m -24,-162 0,162"
       id="path2987-4"
       inkscape:connector-curvature="0"
       sodipodi:nodetypes="ccc"
       inkscape:path-effect="#path-effect2993-6"
       inkscape:original-d="m 170,525.36218 24,0 0,27" />
    <path
       style="fill:none;stroke:#ff0000;stroke-width:0.76662499px;stroke-linecap:butt;stroke-linejoin:miter;stroke-opacity:1"
       d="M 468.52836,472.59551 382.71078,591.41033 M 474.37875,491.12225 388.56117,609.93707 M 480.22914,509.64899 394.41156,628.46381 M 486.07953,528.17573 400.26195,646.99055 M 491.92992,546.70247 406.11234,665.51729 M 497.78031,565.22921 411.96273,684.04403 M 503.6307,583.75595 417.81312,702.57077 m 50.71524,-229.97526 35.10234,111.16044 m -49.40527,-91.35797 35.10234,111.16044 m -49.40527,-91.35797 35.10234,111.16044 m -49.40527,-91.35797 35.10234,111.16044 m -49.40527,-91.35797 35.10234,111.16044 m -49.40527,-91.35797 35.10234,111.16044 m -49.40527,-91.35797 35.10234,111.16044"
       id="path2987-4-5"
       inkscape:connector-curvature="0"
       sodipodi:nodetypes="ccc"
       inkscape:path-effect="#path-effect2993-6-1"
       inkscape:original-d="m 454.22543,492.39798 14.30293,-19.80247 5.85039,18.52674" />
    <path
       style="fill:none;stroke:#ff0000;stroke-width:1px;stroke-linecap:butt;stroke-linejoin:miter;stroke-opacity:1"
       d="m 345.15723,284.51335 c 11.1718,28.98283 43.47097,136.91361 82.71896,178.39888 M 378.99452,300.81859 c 5.2075,22.43461 28.90985,113.82522 54.49841,146.41025 M 406.28066,305.28712 c 0.53376,18.36776 16.91209,95.34721 32.45849,122.7326 M 430.2201,299.82577 c -3.16102,16.8787 9.38834,81.94744 18.19822,107.93024 m 5.05157,-120.97516 c -6.14332,17.69583 8.20403,74.46186 13.31657,102.56748 m 11.35311,-120.41016 c -7.86852,20.27877 14.41357,73.99515 19.41254,107.20863 m 8.23913,-126.62374 c -7.48305,24.52 28.76234,81.2191 38.08513,122.41798 M 345.15723,284.51335 c 77.26774,45.87382 96.02193,6.62273 160.63401,-34.99029 M 354.4644,309.34805 c 69.72036,36.52494 80.15914,-6.999 150.16438,-42.1298 m -139.97391,70.58976 c 63.35549,25.42916 66.30235,-23.41791 145.20993,-52.59415 m -133.87666,83.81052 c 58.12683,13.02424 51.27064,-41.23533 142.54348,-64.54691 m -129.24549,97.1434 c 68.29858,-2.04311 17.57264,-57.26151 138.93783,-76.15162 M 405.93322,433.71384 c 21.6661,-9.99141 34.18578,-79.4415 131.16579,-85.57187 M 427.87619,462.91223 c 12.77644,-22.37851 3.33584,-94.38101 116.00018,-90.97119"
       id="path2987-2"
       inkscape:connector-curvature="0"
       sodipodi:nodetypes="ccc"
       inkscape:path-effect="#path-effect2993-3;#path-effect3058"
       inkscape:original-d="m 484.82576,398.31363 c -29.01025,7.28218 -61.08916,-27.4873 -21.01236,4.32823 l -16.28786,-33.83138" />
    <path
       style="fill:none;stroke:#000000;stroke-width:2;stroke-linecap:butt;stroke-linejoin:miter;stroke-miterlimit:4;stroke-dasharray:none;stroke-opacity:1;marker-end:url(#Arrow1Mend)"
       d="m 220,376.36218 c 59,-33 137,-1 137,-1"
       id="path3086"
       inkscape:connector-curvature="0"
       sodipodi:nodetypes="cc" />
    <path
       style="fill:none;stroke:#000000;stroke-width:2;stroke-linecap:butt;stroke-linejoin:miter;stroke-miterlimit:4;stroke-dasharray:none;stroke-opacity:1;marker-end:url(#Arrow1Mend)"
       d="m 221.82483,615.82743 c 59,-33 137,-1 137,-1"
       id="path3086-3"
       inkscape:connector-curvature="0"
       sodipodi:nodetypes="cc" />
    <flowRoot
       xml:space="preserve"
       id="flowRoot4324"
       style="font-style:normal;font-variant:normal;font-weight:normal;font-stretch:normal;font-size:20px;line-height:125%;font-family:Arial;-inkscape-font-specification:Arial;text-align:center;letter-spacing:0px;word-spacing:0px;writing-mode:lr-tb;text-anchor:middle;fill:#000000;fill-opacity:1;stroke:none"
       transform="translate(-7,11)"><flowRegion
         id="flowRegion4326"><rect
           id="rect4328"
           width="88"
           height="72"
           x="245"
           y="306.36218" /></flowRegion><flowPara
         id="flowPara4330"
         style="font-style:italic;font-size:28px;font-family:'Times New Roman';-inkscape-font-specification:'Times New Roman'">f </flowPara></flowRoot>    <flowRoot
       xml:space="preserve"
       id="flowRoot4324-2"
       style="font-style:normal;font-variant:normal;font-weight:normal;font-stretch:normal;font-size:20px;line-height:125%;font-family:Arial;-inkscape-font-specification:Arial;text-align:center;letter-spacing:0px;word-spacing:0px;writing-mode:lr-tb;text-anchor:middle;fill:#000000;fill-opacity:1;stroke:none"
       transform="translate(1.726563,249.56326)"><flowRegion
         id="flowRegion4326-9"><rect
           id="rect4328-8"
           width="88"
           height="72"
           x="245"
           y="306.36218" /></flowRegion><flowPara
         id="flowPara4330-8"
         style="font-style:italic;font-size:28px;font-family:'Times New Roman';-inkscape-font-specification:'Times New Roman'">J <flowSpan
   style="font-style:normal"
   id="flowSpan4359">(</flowSpan>x<flowSpan
   style="font-size:65.00091553%;baseline-shift:sub"
   id="flowSpan4363">0</flowSpan><flowSpan
   style="font-style:normal"
   id="flowSpan4361">)</flowSpan></flowPara></flowRoot>    <rect
       style="fill:none;stroke:#000000;stroke-width:3;stroke-linecap:round;stroke-linejoin:miter;stroke-miterlimit:4;stroke-dasharray:none;stroke-dashoffset:0;stroke-opacity:1"
       id="rect4365-0"
       width="24.232233"
       height="27.353539"
       x="97.707108"
       y="396.15509" />
    <rect
       style="fill:none;stroke:#000000;stroke-width:3;stroke-linecap:round;stroke-linejoin:miter;stroke-miterlimit:4;stroke-dasharray:none;stroke-dashoffset:0;stroke-opacity:1"
       id="rect4365"
       width="23.878677"
       height="26.999977"
       x="97.707108"
       y="633.00861"
       ry="0" />
    <path
       sodipodi:type="arc"
       style="fill:#000000;fill-opacity:1;fill-rule:nonzero;stroke:none"
       id="path4422"
       sodipodi:cx="43.5"
       sodipodi:cy="229.36218"
       sodipodi:rx="4.5"
       sodipodi:ry="5"
       d="m 48,229.36218 a 4.5,5 0 1 1 -9,0 4.5,5 0 1 1 9,0 z"
       transform="translate(54,194)" />
    <path
       sodipodi:type="arc"
       style="fill:#000000;fill-opacity:1;fill-rule:nonzero;stroke:none"
       id="path4422-6"
       sodipodi:cx="43.5"
       sodipodi:cy="229.36218"
       sodipodi:rx="4.5"
       sodipodi:ry="5"
       d="m 48,229.36218 a 4.5,5 0 1 1 -9,0 4.5,5 0 1 1 9,0 z"
       transform="translate(54.5,429)" />
    <ellipse
       style="fill:#000000;fill-opacity:1;fill-rule:nonzero;stroke:none"
       id="path4422-7"
       cx="428.69974"
       cy="406.72919"
       rx="4.5"
       ry="5" />
    <path
       style="fill:none;stroke:#000000;stroke-width:3;stroke-linecap:round;stroke-linejoin:miter;stroke-miterlimit:4;stroke-dasharray:none;stroke-dashoffset:0;stroke-opacity:1"
       d="m 424.16512,390.5108 14.61091,-20.7604 3.83579,18.97487 -13.12868,18.25736 z"
       id="rect4365-4-1-3"
       inkscape:connector-curvature="0"
       sodipodi:nodetypes="ccccc" />
    <ellipse
       style="fill:#000000;fill-opacity:1;fill-rule:nonzero;stroke:none"
       id="path4422-7-7"
       cx="439.47232"
       cy="642.94446"
       rx="4.5"
       ry="5" />
    <path
       style="fill:none;stroke:#000000;stroke-width:3;stroke-linecap:round;stroke-linejoin:miter;stroke-miterlimit:4;stroke-dasharray:none;stroke-dashoffset:0;stroke-opacity:1"
       d="m 434.9377,626.72608 14.25736,-20.7604 5.60355,18.62132 -14.54289,18.61091 z"
       id="rect4365-4-1-3-5"
       inkscape:connector-curvature="0"
       sodipodi:nodetypes="ccccc" />
    <g
       id="g4810"
       transform="translate(-22,-2)">
      <flowRoot
         style="font-style:normal;font-variant:normal;font-weight:normal;font-stretch:normal;font-size:20px;line-height:125%;font-family:Arial;-inkscape-font-specification:Arial;text-align:center;letter-spacing:0px;word-spacing:0px;writing-mode:lr-tb;text-anchor:middle;fill:#000000;fill-opacity:1;stroke:none"
         id="flowRoot3067"
         xml:space="preserve"><flowRegion
           id="flowRegion3069"><rect
             y="206.36218"
             x="25"
             height="85"
             width="562"
             id="rect3071" /></flowRegion><flowPara
           id="flowPara3075">the Jacobian            is a local linearization</flowPara><flowPara
           id="flowPara3083">of the function     near the point</flowPara></flowRoot>      <g
         transform="matrix(0.4,0,0,0.4,121.46905,81.674374)"
         id="g4484">
        <g
           style="font-style:normal;font-variant:normal;font-weight:normal;font-stretch:normal;letter-spacing:normal;word-spacing:normal;text-anchor:start;fill:none;fill-opacity:1;fill-rule:evenodd;stroke:#000000;stroke-linecap:butt;stroke-linejoin:miter;stroke-miterlimit:10.43299961;stroke-dasharray:none;stroke-dashoffset:0;stroke-opacity:1"
           id="g4486"
           transform="matrix(1.0629921,0,0,-1.0629921,-186.02362,789.27165)"
           xml:space="preserve"
           stroke-miterlimit="10.433"
           font-style="normal"
           font-variant="normal"
           font-weight="normal"
           font-stretch="normal"
           font-size-adjust="none"
           letter-spacing="normal"
           word-spacing="normal"><path
             style="fill:#000000;stroke-width:0"
             inkscape:connector-curvature="0"
             d="m 482.95,436.39 0.04,0.15 0.03,0.14 0.04,0.14 0.03,0.13 0.04,0.12 0.03,0.12 0.04,0.11 0.04,0.11 0.04,0.1 0.04,0.09 0.05,0.09 0.06,0.08 0.05,0.08 0.07,0.07 0.06,0.07 0.08,0.06 0.08,0.06 0.09,0.05 0.1,0.05 0.1,0.04 0.12,0.04 0.12,0.03 0.14,0.03 0.07,0.02 0.07,0.01 0.08,0.01 0.08,0.02 0.08,0.01 0.08,0 0.09,0.01 0.09,0.01 0.1,0.01 0.1,0 0.1,0.01 0.1,0 0.11,0.01 0.11,0 0.12,0 0.12,0.01 0.12,0 0.13,0 c 0.79,0 1.34,0 1.34,0.95 0,0.44 -0.3,0.59 -0.69,0.59 l -12.86,0 c -0.44,0 -1.04,0 -1.04,-0.99 0,-0.55 0.4,-0.55 1.69,-0.55 1.15,0 1.64,0 2.89,-0.1 1.19,-0.15 1.54,-0.3 1.54,-1 0,-0.3 -0.1,-0.65 -0.2,-1.04 l -5.72,-22.87 c -1.2,-4.83 -4.59,-7.47 -7.18,-7.47 -1.29,0 -3.93,0.5 -4.73,3.09 0.15,-0.05 0.5,-0.05 0.6,-0.05 1.94,0 3.24,1.69 3.24,3.19 0,1.59 -1.35,2.09 -2.19,2.09 -0.9,0 -3.34,-0.6 -3.34,-3.99 0,-3.08 2.64,-5.43 6.57,-5.43 4.59,0 9.77,3.29 11.01,8.22 z"
             id="path4488" /><path
             style="fill:#000000;stroke-width:0"
             inkscape:connector-curvature="0"
             d="m 504.49,394.04 0,0.03 0,0.03 -0.01,0.01 0,0.02 0,0.01 -0.01,0.02 0,0.02 -0.01,0.01 -0.01,0.02 -0.01,0.02 -0.01,0.03 -0.01,0.02 -0.02,0.02 -0.02,0.03 -0.02,0.03 -0.02,0.03 -0.03,0.03 -0.03,0.04 -0.01,0.02 -0.02,0.02 -0.02,0.02 -0.02,0.02 -0.02,0.02 -0.02,0.03 -0.02,0.02 -0.02,0.02 -0.02,0.03 -0.03,0.02 -0.02,0.03 -0.03,0.03 -0.02,0.03 -0.03,0.03 -0.03,0.03 -0.03,0.03 -0.03,0.03 -0.03,0.03 -0.04,0.04 -0.03,0.03 -0.04,0.04 -0.03,0.03 -0.04,0.04 -0.04,0.04 c -6.23,6.28 -7.82,15.69 -7.82,23.31 0,8.67 1.89,17.34 8.02,23.57 0.65,0.59 0.65,0.69 0.65,0.84 0,0.35 -0.2,0.5 -0.5,0.5 -0.5,0 -4.98,-3.39 -7.92,-9.72 -2.54,-5.47 -3.14,-11 -3.14,-15.19 0,-3.88 0.55,-9.91 3.29,-15.54 2.99,-6.12 7.27,-9.36 7.77,-9.36 0.3,0 0.5,0.15 0.5,0.49 z"
             id="path4490" /><path
             style="fill:#000000;stroke-width:0"
             inkscape:connector-curvature="0"
             d="m 523.64,421.04 0.03,0.13 0.03,0.15 0.05,0.17 0.04,0.18 0.06,0.19 0.06,0.21 0.06,0.21 0.07,0.23 0.08,0.23 0.09,0.24 0.1,0.25 0.1,0.24 0.11,0.25 0.12,0.25 0.13,0.25 0.14,0.25 0.15,0.24 0.15,0.24 0.17,0.23 0.18,0.22 0.18,0.22 0.2,0.2 0.21,0.19 0.22,0.18 0.23,0.16 0.25,0.14 0.12,0.07 0.13,0.06 0.13,0.05 0.14,0.05 0.14,0.05 0.14,0.04 0.14,0.03 0.15,0.03 0.15,0.02 0.16,0.02 0.16,0.01 0.16,0 c 0.25,0 1.45,0 2.49,-0.65 -1.4,-0.25 -2.39,-1.49 -2.39,-2.68 0,-0.8 0.55,-1.75 1.89,-1.75 1.1,0 2.69,0.9 2.69,2.89 0,2.59 -2.94,3.29 -4.63,3.29 -2.89,0 -4.64,-2.64 -5.23,-3.79 -1.24,3.29 -3.94,3.79 -5.38,3.79 -5.18,0 -8.02,-6.43 -8.02,-7.67 0,-0.5 0.5,-0.5 0.6,-0.5 0.39,0 0.54,0.1 0.64,0.54 1.7,5.29 4.99,6.53 6.68,6.53 0.94,0 2.69,-0.45 2.69,-3.33 0,-1.55 -0.85,-4.89 -2.69,-11.86 -0.8,-3.09 -2.54,-5.18 -4.73,-5.18 -0.3,0 -1.45,0 -2.49,0.65 1.24,0.25 2.34,1.29 2.34,2.69 0,1.34 -1.1,1.74 -1.85,1.74 -1.49,0 -2.73,-1.3 -2.73,-2.89 0,-2.29 2.48,-3.29 4.68,-3.29 3.28,0 5.08,3.49 5.22,3.79 0.61,-1.85 2.4,-3.79 5.39,-3.79 5.13,0 7.97,6.43 7.97,7.67 0,0.5 -0.45,0.5 -0.6,0.5 -0.45,0 -0.55,-0.2 -0.65,-0.55 -1.64,-5.33 -5.03,-6.52 -6.62,-6.52 -1.94,0 -2.74,1.59 -2.74,3.29 0,1.09 0.3,2.19 0.85,4.38 z"
             id="path4492" /><path
             style="fill:#000000;stroke-width:0"
             inkscape:connector-curvature="0"
             d="m 553.99,410.12 0,0.71 -0.02,0.68 -0.03,0.66 -0.04,0.64 -0.06,0.62 -0.08,0.59 -0.09,0.58 -0.11,0.56 -0.12,0.55 -0.15,0.53 -0.17,0.51 -0.19,0.5 -0.21,0.49 -0.24,0.48 -0.26,0.47 -0.14,0.24 -0.15,0.23 c -1.08,1.6 -3.24,2.99 -6.03,2.99 l 0,-0.97 c 1.88,0 3.7,-1.15 4.33,-3.18 0.55,-1.88 0.59,-4.39 0.59,-7.42 0,-2.58 0,-5.17 -0.45,-7.36 -0.7,-3.17 -3.07,-3.94 -4.47,-3.94 l 0,0 c -1.6,0 -3.73,0.94 -4.43,3.8 -0.49,2.06 -0.49,4.92 -0.49,7.5 0,2.54 0,5.19 0.53,7.11 0.73,2.76 2.96,3.49 4.39,3.49 l 0,0.97 c -8.09,0 -8.09,-9.52 -8.09,-12.03 0,-2.51 0,-11.82 8.09,-11.82 8.09,0 8.09,9.31 8.09,11.82 z"
             id="path4494" /><path
             style="fill:#000000;stroke-width:0"
             inkscape:connector-curvature="0"
             d="m 572.4,418.45 -0.01,0.37 0,0.39 -0.01,0.39 -0.01,0.41 -0.04,0.84 -0.06,0.88 -0.09,0.92 -0.1,0.94 -0.14,0.98 -0.16,1 -0.2,1.02 -0.23,1.04 -0.27,1.05 -0.3,1.06 -0.35,1.06 -0.39,1.07 -0.22,0.53 -0.22,0.54 -0.24,0.53 -0.25,0.53 c -2.99,6.12 -7.27,9.36 -7.77,9.36 -0.3,0 -0.5,-0.2 -0.5,-0.5 0,-0.15 0,-0.25 0.94,-1.15 4.89,-4.92 7.73,-12.85 7.73,-23.26 0,-8.52 -1.85,-17.28 -8.02,-23.56 -0.65,-0.6 -0.65,-0.69 -0.65,-0.85 0,-0.29 0.2,-0.49 0.5,-0.49 0.5,0 4.98,3.38 7.92,9.71 2.54,5.48 3.14,11.01 3.14,15.19 z"
             id="path4496" /></g>      </g>
      <g
         id="g4616"
         transform="matrix(0.4,0,0,0.4,181.83204,107.67437)">
        <g
           word-spacing="normal"
           letter-spacing="normal"
           font-size-adjust="none"
           font-stretch="normal"
           font-weight="normal"
           font-variant="normal"
           font-style="normal"
           stroke-miterlimit="10.433"
           xml:space="preserve"
           transform="matrix(1.0629921,0,0,-1.0629921,-186.02362,789.27165)"
           id="content"
           style="font-style:normal;font-variant:normal;font-weight:normal;font-stretch:normal;letter-spacing:normal;word-spacing:normal;text-anchor:start;fill:none;fill-opacity:1;fill-rule:evenodd;stroke:#000000;stroke-linecap:butt;stroke-linejoin:miter;stroke-miterlimit:10.43299961;stroke-dasharray:none;stroke-dashoffset:0;stroke-opacity:1"><path
             id="path4619"
             d="m 474.28,425.93 4.29,0 c 0.99,0 1.49,0 1.49,0.99 0,0.55 -0.5,0.55 -1.35,0.55 l -4.13,0 1.04,5.68 c 0.2,1.05 0.9,4.58 1.2,5.18 0.45,0.94 1.3,1.69 2.34,1.69 0.2,0 1.5,0 2.45,-0.9 -2.2,-0.19 -2.7,-1.94 -2.7,-2.68 0,-1.15 0.9,-1.75 1.85,-1.75 1.29,0 2.74,1.1 2.74,2.99 0,2.29 -2.29,3.44 -4.34,3.44 -1.69,0 -4.83,-0.9 -6.32,-5.83 -0.3,-1.05 -0.45,-1.54 -1.65,-7.82 l -3.43,0 c -0.95,0 -1.5,0 -1.5,-0.95 0,-0.59 0.45,-0.59 1.4,-0.59 l 3.29,0 -3.74,-19.68 c -0.9,-4.83 -1.75,-9.37 -4.33,-9.37 -0.2,0 -1.45,0 -2.4,0.9 2.29,0.15 2.74,1.94 2.74,2.69 0,1.15 -0.89,1.74 -1.84,1.74 -1.29,0 -2.74,-1.09 -2.74,-2.98 0,-2.25 2.19,-3.44 4.24,-3.44 2.73,0 4.73,2.94 5.62,4.83 1.6,3.14 2.74,9.17 2.79,9.51 z"
             inkscape:connector-curvature="0"
             style="fill:#000000;stroke-width:0" /></g>      </g>
      <g
         transform="matrix(0.4,0,0,0.4,331.34897,106.0515)"
         id="g4737">
        <g
           style="font-style:normal;font-variant:normal;font-weight:normal;font-stretch:normal;letter-spacing:normal;word-spacing:normal;text-anchor:start;fill:none;fill-opacity:1;fill-rule:evenodd;stroke:#000000;stroke-linecap:butt;stroke-linejoin:miter;stroke-miterlimit:10.43299961;stroke-dasharray:none;stroke-dashoffset:0;stroke-opacity:1"
           id="g4739"
           transform="matrix(1.0629921,0,0,-1.0629921,-186.02362,789.27165)"
           xml:space="preserve"
           stroke-miterlimit="10.433"
           font-style="normal"
           font-variant="normal"
           font-weight="normal"
           font-stretch="normal"
           font-size-adjust="none"
           letter-spacing="normal"
           word-spacing="normal"><path
             style="fill:#000000;stroke-width:0"
             inkscape:connector-curvature="0"
             d="m 472.64,421.04 0.03,0.13 0.03,0.15 0.05,0.17 0.04,0.18 0.06,0.19 0.06,0.21 0.06,0.21 0.07,0.23 0.08,0.23 0.09,0.24 0.1,0.25 0.1,0.24 0.11,0.25 0.12,0.25 0.13,0.25 0.14,0.25 0.15,0.24 0.15,0.24 0.17,0.23 0.18,0.22 0.18,0.22 0.2,0.2 0.21,0.19 0.22,0.18 0.23,0.16 0.25,0.14 0.12,0.07 0.13,0.06 0.13,0.05 0.14,0.05 0.14,0.05 0.14,0.04 0.14,0.03 0.15,0.03 0.15,0.02 0.16,0.02 0.16,0.01 0.16,0 c 0.25,0 1.45,0 2.49,-0.65 -1.4,-0.25 -2.39,-1.49 -2.39,-2.68 0,-0.8 0.54,-1.75 1.89,-1.75 1.1,0 2.69,0.9 2.69,2.89 0,2.59 -2.94,3.29 -4.63,3.29 -2.89,0 -4.64,-2.64 -5.23,-3.79 -1.25,3.29 -3.94,3.79 -5.38,3.79 -5.18,0 -8.02,-6.43 -8.02,-7.67 0,-0.5 0.5,-0.5 0.6,-0.5 0.39,0 0.54,0.1 0.64,0.54 1.7,5.29 4.98,6.53 6.68,6.53 0.95,0 2.69,-0.45 2.69,-3.33 0,-1.55 -0.85,-4.89 -2.69,-11.86 -0.8,-3.09 -2.54,-5.18 -4.73,-5.18 -0.3,0 -1.45,0 -2.49,0.65 1.24,0.25 2.34,1.29 2.34,2.69 0,1.34 -1.1,1.74 -1.85,1.74 -1.49,0 -2.73,-1.3 -2.73,-2.89 0,-2.29 2.48,-3.29 4.68,-3.29 3.28,0 5.08,3.49 5.23,3.79 0.6,-1.85 2.39,-3.79 5.38,-3.79 5.13,0 7.97,6.43 7.97,7.67 0,0.5 -0.45,0.5 -0.6,0.5 -0.45,0 -0.55,-0.2 -0.65,-0.55 -1.64,-5.33 -5.03,-6.52 -6.62,-6.52 -1.95,0 -2.74,1.59 -2.74,3.29 0,1.09 0.29,2.19 0.85,4.38 z"
             id="path4741" /><path
             style="fill:#000000;stroke-width:0"
             inkscape:connector-curvature="0"
             d="m 501.99,410.12 0,0.71 -0.02,0.68 -0.03,0.66 -0.04,0.64 -0.06,0.62 -0.08,0.59 -0.09,0.58 -0.11,0.56 -0.12,0.55 -0.15,0.53 -0.17,0.51 -0.19,0.5 -0.21,0.49 -0.24,0.48 -0.26,0.47 -0.14,0.24 -0.15,0.23 c -1.07,1.6 -3.24,2.99 -6.03,2.99 l 0,-0.97 c 1.89,0 3.7,-1.15 4.33,-3.18 0.56,-1.88 0.59,-4.39 0.59,-7.42 0,-2.58 0,-5.17 -0.45,-7.36 -0.7,-3.17 -3.07,-3.94 -4.47,-3.94 l 0,0 c -1.6,0 -3.73,0.94 -4.43,3.8 -0.49,2.06 -0.49,4.92 -0.49,7.5 0,2.54 0,5.19 0.53,7.11 0.73,2.76 2.96,3.49 4.39,3.49 l 0,0.97 c -8.09,0 -8.09,-9.52 -8.09,-12.03 0,-2.51 0,-11.82 8.09,-11.82 8.09,0 8.09,9.31 8.09,11.82 z"
             id="path4743" /></g>      </g>
    </g>
  </g>
</svg>
