<?xml version="1.0" encoding="UTF-8" standalone="no"?>
<!-- Created with Inkscape (http://www.inkscape.org/) -->

<svg
   xmlns:dc="http://purl.org/dc/elements/1.1/"
   xmlns:cc="http://creativecommons.org/ns#"
   xmlns:rdf="http://www.w3.org/1999/02/22-rdf-syntax-ns#"
   xmlns:svg="http://www.w3.org/2000/svg"
   xmlns="http://www.w3.org/2000/svg"
   xmlns:sodipodi="http://sodipodi.sourceforge.net/DTD/sodipodi-0.dtd"
   xmlns:inkscape="http://www.inkscape.org/namespaces/inkscape"
   width="744.09448819"
   height="1052.3622047"
   id="svg2"
   version="1.1"
   inkscape:version="0.48.4 r9939"
   inkscape:export-filename="/home/yky/latex/AGI-16/YKY.png"
   inkscape:export-xdpi="300"
   inkscape:export-ydpi="300"
   sodipodi:docname="New document 1">
  <defs
     id="defs4" />
  <sodipodi:namedview
     id="base"
     pagecolor="#ffffff"
     bordercolor="#666666"
     borderopacity="1.0"
     inkscape:pageopacity="0.0"
     inkscape:pageshadow="2"
     inkscape:zoom="1"
     inkscape:cx="365.10671"
     inkscape:cy="515.05335"
     inkscape:document-units="px"
     inkscape:current-layer="layer1"
     showgrid="false"
     inkscape:window-width="644"
     inkscape:window-height="572"
     inkscape:window-x="0"
     inkscape:window-y="2"
     inkscape:window-maximized="0" />
  <metadata
     id="metadata7">
    <rdf:RDF>
      <cc:Work
         rdf:about="">
        <dc:format>image/svg+xml</dc:format>
        <dc:type
           rdf:resource="http://purl.org/dc/dcmitype/StillImage" />
        <dc:title></dc:title>
      </cc:Work>
    </rdf:RDF>
  </metadata>
  <g
     inkscape:label="Layer 1"
     inkscape:groupmode="layer"
     id="layer1">
    <g
       transform="translate(90,46)"
       style="font-size:20px;font-style:normal;font-variant:normal;font-weight:normal;font-stretch:normal;text-align:center;line-height:125%;letter-spacing:0px;word-spacing:0px;writing-mode:lr-tb;text-anchor:middle;fill:#000000;fill-opacity:1;stroke:none;font-family:Arial;-inkscape-font-specification:Arial"
       id="flowRoot2985">
      <path
         d="m 249.82812,487.59725 8.35938,0 0,1.32812 -2.34375,0 0,1.79688 2.26562,0 0,5.85937 -8.20312,0 0,-5.85937 2.34375,0 0,-1.79688 -2.42188,0 0,-1.32812 m 4.6875,3.125 0,-1.79688 -0.9375,0 0,1.79688 0.9375,0 m -3.20312,4.53125 0.9375,0 0,-3.20313 -0.9375,0 0,3.20313 m 2.26562,-3.20313 0,3.20313 0.9375,0 0,-3.20313 -0.9375,0 m 2.26563,0 0,3.20313 0.9375,0 0,-3.20313 -0.9375,0 m 2.26562,9.53125 0.23438,1.40625 c -2.55209,0.625 -5.39063,1.17188 -8.51563,1.64063 l -0.3125,-1.5625 c 1.35417,-0.15625 2.60417,-0.33854 3.75,-0.54688 l 0,-2.57812 -3.20312,0 0,-1.32813 3.20312,0 0,-1.48437 1.48438,0 0,1.48437 3.35937,0 0,1.32813 -3.35937,0 0,2.34375 c 1.24999,-0.20833 2.36978,-0.44271 3.35937,-0.70313 m 0.39063,-13.59375 8.28125,0 0,1.48438 -5.23438,0 -0.23437,2.73437 4.45312,0 c -0.52085,6.71876 -0.78126,10.33855 -0.78125,10.85938 -1e-5,0.3125 0.1302,0.46875 0.39063,0.46875 0.36457,0 0.62498,-0.52083 0.78125,-1.5625 l 1.48437,0.46875 c -0.15626,1.04166 -0.39064,1.71875 -0.70312,2.03125 -0.31252,0.3125 -0.78127,0.46875 -1.40625,0.46875 l -0.3125,0 c -0.62502,0 -1.09377,-0.13021 -1.40625,-0.39063 -0.26043,-0.20833 -0.39064,-0.57291 -0.39063,-1.09375 -1e-5,-0.46875 0.23436,-3.72395 0.70313,-9.76562 l -2.96875,0 -1.09375,9.76562 c 0.78124,-0.15625 1.56249,-0.39062 2.34375,-0.70312 l 0.23437,1.32812 c -1.30209,0.41667 -2.44792,0.70313 -3.4375,0.85938 l -0.625,-1.01563 c -1e-5,-0.41666 0.52083,-5.23437 1.5625,-14.45312 l -1.64062,0 0,-1.48438 m 4.21875,7.65625 c 0.2604,1.30209 0.41665,2.63022 0.46875,3.98438 l -1.32813,0.39062 c -0.0521,-1.45833 -0.20834,-2.78645 -0.46875,-3.98437 l 1.32813,-0.39063"
         style=""
         id="path2994" />
      <path
         d="m 272.09375,487.59725 12.96875,0 0,5.15625 -12.96875,0 0,-5.15625 m 1.48437,2.03125 9.92188,0 0,-0.85938 -9.92188,0 0,0.85938 m 0,1.875 9.92188,0 0,-0.78125 -9.92188,0 0,0.78125 m -4.0625,2.5 8.125,0 c -0.20834,-0.57291 -0.44271,-1.0677 -0.70312,-1.48438 l 1.5625,-0.54687 c 0.31249,0.62501 0.57291,1.30209 0.78125,2.03125 l 8.20312,0 0,1.40625 -17.96875,0 0,-1.40625 m 2.26563,2.1875 13.4375,0 0,3.98437 -5.625,0 0,2.96875 c -10e-6,0.72917 -0.13022,1.22396 -0.39063,1.48438 -0.26042,0.3125 -0.8073,0.46875 -1.64062,0.46875 -0.78126,0 -1.48438,-0.0781 -2.10938,-0.23438 l -0.3125,-1.5625 c 0.83333,0.20834 1.64062,0.3125 2.42188,0.3125 0.31249,0 0.46874,-0.23437 0.46875,-0.70312 l 0,-2.73438 -6.25,0 0,-3.98437 m 1.40625,2.65625 10.54687,0 0,-1.32813 -10.54687,0 0,1.32813 m 1.01562,1.79687 0.9375,1.09375 c -1.25,1.19792 -2.78646,2.10938 -4.60937,2.73438 l -0.85938,-1.32813 c 1.97917,-0.67708 3.48958,-1.51041 4.53125,-2.5 m 8.28125,0 c 1.61457,0.83334 2.99478,1.71875 4.14063,2.65625 l -1.17188,1.25 c -1.19793,-1.09375 -2.60418,-2.08333 -4.21875,-2.96875 l 1.25,-0.9375"
         style=""
         id="path2996" />
      <path
         d="m 304.82812,496.11287 0,5.9375 -1.5625,0 0,-4.60937 -9.60937,0 0,4.6875 -1.5625,0 0,-6.01563 12.73437,0 m -6.875,2.03125 1.5625,0.3125 c -0.36459,1.92709 -1.19792,3.4375 -2.5,4.53125 -1.30209,1.09375 -3.33333,1.875 -6.09375,2.34375 l -0.78125,-1.48437 c 2.65625,-0.36459 4.55729,-0.98958 5.70313,-1.875 1.14582,-0.9375 1.84895,-2.21354 2.10937,-3.82813 m 2.03125,3.51563 c 2.34374,0.57292 4.58332,1.27604 6.71875,2.10937 L 306,505.33162 c -2.29168,-0.98958 -4.53126,-1.77083 -6.71875,-2.34375 l 0.70312,-1.32812 m -5.39062,-14.21875 1.5625,0 0,7.96875 -1.5625,0 0,-7.96875 m 4.14062,2.26562 c 0.78124,0.93752 1.71874,1.74481 2.8125,2.42188 1.09374,-0.83332 2.03124,-1.84895 2.8125,-3.04688 l -6.875,0 0,-1.32812 8.67188,0 0,1.32812 c -0.88543,1.51043 -1.9271,2.78647 -3.125,3.82813 1.30207,0.57292 2.73436,1.01563 4.29687,1.32812 l -0.70312,1.48438 c -1.87502,-0.41666 -3.54168,-1.01562 -5,-1.79688 -1.25001,0.78126 -2.63022,1.35418 -4.14063,1.71875 l -0.78125,-1.40625 c 1.30208,-0.2604 2.44791,-0.65103 3.4375,-1.17187 -0.83334,-0.62499 -1.56251,-1.35416 -2.1875,-2.1875 l 0.78125,-1.17188 m -7.89062,-1.5625 1.5625,0 0,6.79688 -1.5625,0 0,-6.79688"
         style=""
         id="path2998" />
    </g>
  </g>
</svg>
